<?xml version="1.0" encoding="UTF-8" standalone="no"?>
<!-- Created with Inkscape (http://www.inkscape.org/) -->

<svg
   width="56.03101mm"
   height="27.98307mm"
   viewBox="0 0 56.031009 27.98307"
   version="1.1"
   id="svg11511"
   xmlns="http://www.w3.org/2000/svg"
   xmlns:svg="http://www.w3.org/2000/svg">
  <defs
     id="defs11508">
    <linearGradient
       x1="108.917"
       x2="110.023"
       y2="-26.991199"
       id="SVGID_1_"
       y1="-26.991199"
       gradientTransform="matrix(0.47037043,0,0,-0.47037043,-38.91804,39.886471)"
       gradientUnits="userSpaceOnUse">
      <stop
         stop-color="#BCBCBC"
         offset="0"
         id="stop6162" />
      <stop
         stop-color="#B3B3B3"
         offset="0.1064"
         id="stop6164" />
      <stop
         stop-color="#9A9A9A"
         offset="0.2822"
         id="stop6166" />
      <stop
         stop-color="#717171"
         offset="0.5055"
         id="stop6168" />
      <stop
         stop-color="#393939"
         offset="0.7646"
         id="stop6170" />
      <stop
         stop-color="#000000"
         offset="1"
         id="stop6172" />
    </linearGradient>
    <linearGradient
       x1="108.917"
       gradientUnits="userSpaceOnUse"
       gradientTransform="matrix(1,0,0,-1,-93.7759,8.8906)"
       id="SVGID_1_-3"
       x2="110.023"
       y1="-26.991199"
       y2="-26.991199">
      <stop
         stop-color="#BCBCBC"
         offset="0"
         id="stop11655" />
      <stop
         stop-color="#B3B3B3"
         offset="0.1064"
         id="stop11657" />
      <stop
         stop-color="#9A9A9A"
         offset="0.2822"
         id="stop11659" />
      <stop
         stop-color="#717171"
         offset="0.5055"
         id="stop11661" />
      <stop
         stop-color="#393939"
         offset="0.7646"
         id="stop11663" />
      <stop
         stop-color="#000000"
         offset="1"
         id="stop11665" />
    </linearGradient>
  </defs>
  <g
     id="g2053"
     transform="translate(-4.6727029,-55.385504)"
     style="display:inline">
    <rect
       style="fill:none;fill-opacity:1;stroke:#000000;stroke-width:0.422221;stroke-linejoin:miter;stroke-dasharray:none"
       id="rect1979"
       width="55.608788"
       height="27.56085"
       x="4.8838134"
       y="55.596615" />
    <path
       d="m 53.962,62.524 c -1.096,0 -1.984,0.891 -1.984,1.984 0,1.097 0.89,1.984 1.984,1.984 1.097,0 1.983,-0.889 1.983,-1.984 0.002,-1.093 -0.886,-1.984 -1.983,-1.984 z m 0,3.4 c -0.783,0 -1.419,-0.635 -1.419,-1.416 0,-0.782 0.636,-1.418 1.419,-1.418 0.782,0 1.415,0.636 1.415,1.418 0,0.782 -0.632,1.416 -1.415,1.416 z"
       fill="#ababab"
       id="path1981"
       style="fill:#fdde68;fill-opacity:1;stroke:#fdde68;stroke-width:0.425197;stroke-dasharray:none;stroke-opacity:1"
       transform="matrix(0.35277782,0,0,0.35277782,36.514035,59.319297)" />
    <path
       d="m 53.962,62.524 c -1.096,0 -1.984,0.891 -1.984,1.984 0,1.097 0.89,1.984 1.984,1.984 1.097,0 1.983,-0.889 1.983,-1.984 0.002,-1.093 -0.886,-1.984 -1.983,-1.984 z m 0,3.4 c -0.783,0 -1.419,-0.635 -1.419,-1.416 0,-0.782 0.636,-1.418 1.419,-1.418 0.782,0 1.415,0.636 1.415,1.418 0,0.782 -0.632,1.416 -1.415,1.416 z"
       fill="#ababab"
       id="path1983"
       style="fill:#fdde68;fill-opacity:1;stroke:#fdde68;stroke-width:0.425197;stroke-dasharray:none;stroke-opacity:1"
       transform="matrix(0.35277782,0,0,0.35277782,34.01018,59.319297)" />
    <path
       d="m 53.962,62.524 c -1.096,0 -1.984,0.891 -1.984,1.984 0,1.097 0.89,1.984 1.984,1.984 1.097,0 1.983,-0.889 1.983,-1.984 0.002,-1.093 -0.886,-1.984 -1.983,-1.984 z m 0,3.4 c -0.783,0 -1.419,-0.635 -1.419,-1.416 0,-0.782 0.636,-1.418 1.419,-1.418 0.782,0 1.415,0.636 1.415,1.418 0,0.782 -0.632,1.416 -1.415,1.416 z"
       fill="#ababab"
       id="path1985"
       style="fill:#fdde68;fill-opacity:1;stroke:#fdde68;stroke-width:0.425197;stroke-dasharray:none;stroke-opacity:1"
       transform="matrix(0.35277782,0,0,0.35277782,31.47018,59.319297)" />
    <path
       d="m 53.962,62.524 c -1.096,0 -1.984,0.891 -1.984,1.984 0,1.097 0.89,1.984 1.984,1.984 1.097,0 1.983,-0.889 1.983,-1.984 0.002,-1.093 -0.886,-1.984 -1.983,-1.984 z m 0,3.4 c -0.783,0 -1.419,-0.635 -1.419,-1.416 0,-0.782 0.636,-1.418 1.419,-1.418 0.782,0 1.415,0.636 1.415,1.418 0,0.782 -0.632,1.416 -1.415,1.416 z"
       fill="#ababab"
       id="path1987"
       style="fill:#fdde68;fill-opacity:1;stroke:#fdde68;stroke-width:0.425197;stroke-dasharray:none;stroke-opacity:1"
       transform="matrix(0.35277782,0,0,0.35277782,28.966323,59.319297)" />
    <path
       d="m 53.962,62.524 c -1.096,0 -1.984,0.891 -1.984,1.984 0,1.097 0.89,1.984 1.984,1.984 1.097,0 1.983,-0.889 1.983,-1.984 0.002,-1.093 -0.886,-1.984 -1.983,-1.984 z m 0,3.4 c -0.783,0 -1.419,-0.635 -1.419,-1.416 0,-0.782 0.636,-1.418 1.419,-1.418 0.782,0 1.415,0.636 1.415,1.418 0,0.782 -0.632,1.416 -1.415,1.416 z"
       fill="#ababab"
       id="path1989"
       style="fill:#fdde68;fill-opacity:1;stroke:#fdde68;stroke-width:0.425197;stroke-dasharray:none;stroke-opacity:1"
       transform="matrix(0.35277782,0,0,0.35277782,26.426323,59.319297)" />
    <path
       d="m 53.962,62.524 c -1.096,0 -1.984,0.891 -1.984,1.984 0,1.097 0.89,1.984 1.984,1.984 1.097,0 1.983,-0.889 1.983,-1.984 0.002,-1.093 -0.886,-1.984 -1.983,-1.984 z m 0,3.4 c -0.783,0 -1.419,-0.635 -1.419,-1.416 0,-0.782 0.636,-1.418 1.419,-1.418 0.782,0 1.415,0.636 1.415,1.418 0,0.782 -0.632,1.416 -1.415,1.416 z"
       fill="#ababab"
       id="path1991"
       style="fill:#fdde68;fill-opacity:1;stroke:#fdde68;stroke-width:0.425197;stroke-dasharray:none;stroke-opacity:1"
       transform="matrix(0.35277782,0,0,0.35277782,23.922466,59.319297)" />
    <path
       d="m 53.962,62.524 c -1.096,0 -1.984,0.891 -1.984,1.984 0,1.097 0.89,1.984 1.984,1.984 1.097,0 1.983,-0.889 1.983,-1.984 0.002,-1.093 -0.886,-1.984 -1.983,-1.984 z m 0,3.4 c -0.783,0 -1.419,-0.635 -1.419,-1.416 0,-0.782 0.636,-1.418 1.419,-1.418 0.782,0 1.415,0.636 1.415,1.418 0,0.782 -0.632,1.416 -1.415,1.416 z"
       fill="#ababab"
       id="path1993"
       style="fill:#fdde68;fill-opacity:1;stroke:#fdde68;stroke-width:0.425197;stroke-dasharray:none;stroke-opacity:1"
       transform="matrix(0.35277782,0,0,0.35277782,21.382466,59.319297)" />
    <path
       d="m 53.962,62.524 c -1.096,0 -1.984,0.891 -1.984,1.984 0,1.097 0.89,1.984 1.984,1.984 1.097,0 1.983,-0.889 1.983,-1.984 0.002,-1.093 -0.886,-1.984 -1.983,-1.984 z m 0,3.4 c -0.783,0 -1.419,-0.635 -1.419,-1.416 0,-0.782 0.636,-1.418 1.419,-1.418 0.782,0 1.415,0.636 1.415,1.418 0,0.782 -0.632,1.416 -1.415,1.416 z"
       fill="#ababab"
       id="path1995"
       style="fill:#fdde68;fill-opacity:1;stroke:#fdde68;stroke-width:0.425197;stroke-dasharray:none;stroke-opacity:1"
       transform="matrix(0.35277782,0,0,0.35277782,18.87861,59.319297)" />
    <path
       d="m 53.962,62.524 c -1.096,0 -1.984,0.891 -1.984,1.984 0,1.097 0.89,1.984 1.984,1.984 1.097,0 1.983,-0.889 1.983,-1.984 0.002,-1.093 -0.886,-1.984 -1.983,-1.984 z m 0,3.4 c -0.783,0 -1.419,-0.635 -1.419,-1.416 0,-0.782 0.636,-1.418 1.419,-1.418 0.782,0 1.415,0.636 1.415,1.418 0,0.782 -0.632,1.416 -1.415,1.416 z"
       fill="#ababab"
       id="path1997"
       style="fill:#fdde68;fill-opacity:1;stroke:#fdde68;stroke-width:0.425197;stroke-dasharray:none;stroke-opacity:1"
       transform="matrix(0.35277782,0,0,0.35277782,16.33861,59.319297)" />
    <path
       d="m 53.962,62.524 c -1.096,0 -1.984,0.891 -1.984,1.984 0,1.097 0.89,1.984 1.984,1.984 1.097,0 1.983,-0.889 1.983,-1.984 0.002,-1.093 -0.886,-1.984 -1.983,-1.984 z m 0,3.4 c -0.783,0 -1.419,-0.635 -1.419,-1.416 0,-0.782 0.636,-1.418 1.419,-1.418 0.782,0 1.415,0.636 1.415,1.418 0,0.782 -0.632,1.416 -1.415,1.416 z"
       fill="#ababab"
       id="path1999"
       style="fill:#fdde68;fill-opacity:1;stroke:#fdde68;stroke-width:0.425197;stroke-dasharray:none;stroke-opacity:1"
       transform="matrix(0.35277782,0,0,0.35277782,13.762466,59.319297)" />
    <path
       d="m 53.962,62.524 c -1.096,0 -1.984,0.891 -1.984,1.984 0,1.097 0.89,1.984 1.984,1.984 1.097,0 1.983,-0.889 1.983,-1.984 0.002,-1.093 -0.886,-1.984 -1.983,-1.984 z m 0,3.4 c -0.783,0 -1.419,-0.635 -1.419,-1.416 0,-0.782 0.636,-1.418 1.419,-1.418 0.782,0 1.415,0.636 1.415,1.418 0,0.782 -0.632,1.416 -1.415,1.416 z"
       fill="#ababab"
       id="path2001"
       style="fill:#fdde68;fill-opacity:1;stroke:#fdde68;stroke-width:0.425197;stroke-dasharray:none;stroke-opacity:1"
       transform="matrix(0.35277782,0,0,0.35277782,11.222467,59.319297)" />
    <path
       d="m 53.962,62.524 c -1.096,0 -1.984,0.891 -1.984,1.984 0,1.097 0.89,1.984 1.984,1.984 1.097,0 1.983,-0.889 1.983,-1.984 0.002,-1.093 -0.886,-1.984 -1.983,-1.984 z m 0,3.4 c -0.783,0 -1.419,-0.635 -1.419,-1.416 0,-0.782 0.636,-1.418 1.419,-1.418 0.782,0 1.415,0.636 1.415,1.418 0,0.782 -0.632,1.416 -1.415,1.416 z"
       fill="#ababab"
       id="path2003"
       style="fill:#fdde68;fill-opacity:1;stroke:#fdde68;stroke-width:0.425197;stroke-dasharray:none;stroke-opacity:1"
       transform="matrix(0.35277782,0,0,0.35277782,8.6463238,59.319297)" />
    <path
       d="m 53.962,62.524 c -1.096,0 -1.984,0.891 -1.984,1.984 0,1.097 0.89,1.984 1.984,1.984 1.097,0 1.983,-0.889 1.983,-1.984 0.002,-1.093 -0.886,-1.984 -1.983,-1.984 z m 0,3.4 c -0.783,0 -1.419,-0.635 -1.419,-1.416 0,-0.782 0.636,-1.418 1.419,-1.418 0.782,0 1.415,0.636 1.415,1.418 0,0.782 -0.632,1.416 -1.415,1.416 z"
       fill="#ababab"
       id="path2005"
       style="fill:#fdde68;fill-opacity:1;stroke:#fdde68;stroke-width:0.425197;stroke-dasharray:none;stroke-opacity:1"
       transform="matrix(0.35277782,0,0,0.35277782,6.1063247,59.319297)" />
    <path
       d="m 53.962,62.524 c -1.096,0 -1.984,0.891 -1.984,1.984 0,1.097 0.89,1.984 1.984,1.984 1.097,0 1.983,-0.889 1.983,-1.984 0.002,-1.093 -0.886,-1.984 -1.983,-1.984 z m 0,3.4 c -0.783,0 -1.419,-0.635 -1.419,-1.416 0,-0.782 0.636,-1.418 1.419,-1.418 0.782,0 1.415,0.636 1.415,1.418 0,0.782 -0.632,1.416 -1.415,1.416 z"
       fill="#ababab"
       id="path2007"
       style="fill:#fdde68;fill-opacity:1;stroke:#fdde68;stroke-width:0.425197;stroke-dasharray:none;stroke-opacity:1"
       transform="matrix(0.35277782,0,0,0.35277782,3.6024674,59.319297)" />
    <path
       d="m 53.962,62.524 c -1.096,0 -1.984,0.891 -1.984,1.984 0,1.097 0.89,1.984 1.984,1.984 1.097,0 1.983,-0.889 1.983,-1.984 0.002,-1.093 -0.886,-1.984 -1.983,-1.984 z m 0,3.4 c -0.783,0 -1.419,-0.635 -1.419,-1.416 0,-0.782 0.636,-1.418 1.419,-1.418 0.782,0 1.415,0.636 1.415,1.418 0,0.782 -0.632,1.416 -1.415,1.416 z"
       fill="#ababab"
       id="path2009"
       style="fill:#fdde68;fill-opacity:1;stroke:#fdde68;stroke-width:0.425197;stroke-dasharray:none;stroke-opacity:1"
       transform="matrix(0.35277782,0,0,0.35277782,1.0624675,59.319297)" />
    <path
       d="m 53.962,62.524 c -1.096,0 -1.984,0.891 -1.984,1.984 0,1.097 0.89,1.984 1.984,1.984 1.097,0 1.983,-0.889 1.983,-1.984 0.002,-1.093 -0.886,-1.984 -1.983,-1.984 z m 0,3.4 c -0.783,0 -1.419,-0.635 -1.419,-1.416 0,-0.782 0.636,-1.418 1.419,-1.418 0.782,0 1.415,0.636 1.415,1.418 0,0.782 -0.632,1.416 -1.415,1.416 z"
       fill="#ababab"
       id="path2011"
       style="fill:#fdde68;fill-opacity:1;stroke:#fdde68;stroke-width:0.425197;stroke-dasharray:none;stroke-opacity:1"
       transform="matrix(0.35277782,0,0,0.35277782,-1.4413881,59.319297)" />
    <path
       d="m 15.055208,81.376378 c -0.386645,0 -0.699911,0.314325 -0.699911,0.699912 0,0.386997 0.313972,0.699911 0.699911,0.699911 0.386997,0 0.699558,-0.31362 0.699558,-0.699911 7.06e-4,-0.385587 -0.312561,-0.699912 -0.699558,-0.699912 z m 0,1.199445 c -0.276225,0 -0.500592,-0.224014 -0.500592,-0.499533 0,-0.275873 0.224367,-0.500239 0.500592,-0.500239 0.275872,0 0.49918,0.224366 0.49918,0.500239 0,0.275872 -0.222955,0.499533 -0.49918,0.499533 z"
       fill="#ababab"
       id="path2013"
       style="fill:#fdde68;fill-opacity:1;stroke:#fdde68;stroke-width:0.15;stroke-dasharray:none;stroke-opacity:1" />
    <path
       d="m 30.239,62.381 v 4.252 h 4.254 v -4.252 z m 2.128,3.543 c -0.783,0 -1.42,-0.635 -1.42,-1.418 0,-0.782 0.637,-1.418 1.42,-1.418 0.782,0 1.417,0.636 1.417,1.418 0,0.784 -0.634,1.418 -1.417,1.418 z"
       fill="#ababab"
       id="path2015"
       style="fill:#fdde68;fill-opacity:1;stroke:none;stroke-width:0;stroke-dasharray:none;stroke-opacity:1"
       transform="matrix(0.35277782,0,0,0.35277782,1.1151449,59.319651)" />
    <path
       d="m 53.962,62.524 c -1.096,0 -1.984,0.891 -1.984,1.984 0,1.097 0.89,1.984 1.984,1.984 1.097,0 1.983,-0.889 1.983,-1.984 0.002,-1.093 -0.886,-1.984 -1.983,-1.984 z m 0,3.4 c -0.783,0 -1.419,-0.635 -1.419,-1.416 0,-0.782 0.636,-1.418 1.419,-1.418 0.782,0 1.415,0.636 1.415,1.418 0,0.782 -0.632,1.416 -1.415,1.416 z"
       fill="#ababab"
       id="path2017"
       style="fill:#fdde68;fill-opacity:1;stroke:#fdde68;stroke-width:0.425197;stroke-dasharray:none;stroke-opacity:1"
       transform="matrix(0.35277782,0,0,0.35277782,36.531503,33.919297)" />
    <path
       d="m 53.962,62.524 c -1.096,0 -1.984,0.891 -1.984,1.984 0,1.097 0.89,1.984 1.984,1.984 1.097,0 1.983,-0.889 1.983,-1.984 0.002,-1.093 -0.886,-1.984 -1.983,-1.984 z m 0,3.4 c -0.783,0 -1.419,-0.635 -1.419,-1.416 0,-0.782 0.636,-1.418 1.419,-1.418 0.782,0 1.415,0.636 1.415,1.418 0,0.782 -0.632,1.416 -1.415,1.416 z"
       fill="#ababab"
       id="path2019"
       style="fill:#fdde68;fill-opacity:1;stroke:#fdde68;stroke-width:0.425197;stroke-dasharray:none;stroke-opacity:1"
       transform="matrix(0.35277782,0,0,0.35277782,34.027648,33.919297)" />
    <path
       d="m 53.962,62.524 c -1.096,0 -1.984,0.891 -1.984,1.984 0,1.097 0.89,1.984 1.984,1.984 1.097,0 1.983,-0.889 1.983,-1.984 0.002,-1.093 -0.886,-1.984 -1.983,-1.984 z m 0,3.4 c -0.783,0 -1.419,-0.635 -1.419,-1.416 0,-0.782 0.636,-1.418 1.419,-1.418 0.782,0 1.415,0.636 1.415,1.418 0,0.782 -0.632,1.416 -1.415,1.416 z"
       fill="#ababab"
       id="path2021"
       style="fill:#fdde68;fill-opacity:1;stroke:#fdde68;stroke-width:0.425197;stroke-dasharray:none;stroke-opacity:1"
       transform="matrix(0.35277782,0,0,0.35277782,31.487648,33.919297)" />
    <path
       d="m 53.962,62.524 c -1.096,0 -1.984,0.891 -1.984,1.984 0,1.097 0.89,1.984 1.984,1.984 1.097,0 1.983,-0.889 1.983,-1.984 0.002,-1.093 -0.886,-1.984 -1.983,-1.984 z m 0,3.4 c -0.783,0 -1.419,-0.635 -1.419,-1.416 0,-0.782 0.636,-1.418 1.419,-1.418 0.782,0 1.415,0.636 1.415,1.418 0,0.782 -0.632,1.416 -1.415,1.416 z"
       fill="#ababab"
       id="path2023"
       style="fill:#fdde68;fill-opacity:1;stroke:#fdde68;stroke-width:0.425197;stroke-dasharray:none;stroke-opacity:1"
       transform="matrix(0.35277782,0,0,0.35277782,28.983791,33.919297)" />
    <path
       d="m 53.962,62.524 c -1.096,0 -1.984,0.891 -1.984,1.984 0,1.097 0.89,1.984 1.984,1.984 1.097,0 1.983,-0.889 1.983,-1.984 0.002,-1.093 -0.886,-1.984 -1.983,-1.984 z m 0,3.4 c -0.783,0 -1.419,-0.635 -1.419,-1.416 0,-0.782 0.636,-1.418 1.419,-1.418 0.782,0 1.415,0.636 1.415,1.418 0,0.782 -0.632,1.416 -1.415,1.416 z"
       fill="#ababab"
       id="path2025"
       style="fill:#fdde68;fill-opacity:1;stroke:#fdde68;stroke-width:0.425197;stroke-dasharray:none;stroke-opacity:1"
       transform="matrix(0.35277782,0,0,0.35277782,26.443791,33.919297)" />
    <path
       d="m 53.962,62.524 c -1.096,0 -1.984,0.891 -1.984,1.984 0,1.097 0.89,1.984 1.984,1.984 1.097,0 1.983,-0.889 1.983,-1.984 0.002,-1.093 -0.886,-1.984 -1.983,-1.984 z m 0,3.4 c -0.783,0 -1.419,-0.635 -1.419,-1.416 0,-0.782 0.636,-1.418 1.419,-1.418 0.782,0 1.415,0.636 1.415,1.418 0,0.782 -0.632,1.416 -1.415,1.416 z"
       fill="#ababab"
       id="path2027"
       style="fill:#fdde68;fill-opacity:1;stroke:#fdde68;stroke-width:0.425197;stroke-dasharray:none;stroke-opacity:1"
       transform="matrix(0.35277782,0,0,0.35277782,23.939934,33.919297)" />
    <path
       d="m 53.962,62.524 c -1.096,0 -1.984,0.891 -1.984,1.984 0,1.097 0.89,1.984 1.984,1.984 1.097,0 1.983,-0.889 1.983,-1.984 0.002,-1.093 -0.886,-1.984 -1.983,-1.984 z m 0,3.4 c -0.783,0 -1.419,-0.635 -1.419,-1.416 0,-0.782 0.636,-1.418 1.419,-1.418 0.782,0 1.415,0.636 1.415,1.418 0,0.782 -0.632,1.416 -1.415,1.416 z"
       fill="#ababab"
       id="path2029"
       style="fill:#fdde68;fill-opacity:1;stroke:#fdde68;stroke-width:0.425197;stroke-dasharray:none;stroke-opacity:1"
       transform="matrix(0.35277782,0,0,0.35277782,21.399934,33.919297)" />
    <path
       d="m 53.962,62.524 c -1.096,0 -1.984,0.891 -1.984,1.984 0,1.097 0.89,1.984 1.984,1.984 1.097,0 1.983,-0.889 1.983,-1.984 0.002,-1.093 -0.886,-1.984 -1.983,-1.984 z m 0,3.4 c -0.783,0 -1.419,-0.635 -1.419,-1.416 0,-0.782 0.636,-1.418 1.419,-1.418 0.782,0 1.415,0.636 1.415,1.418 0,0.782 -0.632,1.416 -1.415,1.416 z"
       fill="#ababab"
       id="path2031"
       style="fill:#fdde68;fill-opacity:1;stroke:#fdde68;stroke-width:0.425197;stroke-dasharray:none;stroke-opacity:1"
       transform="matrix(0.35277782,0,0,0.35277782,18.896078,33.919297)" />
    <path
       d="m 53.962,62.524 c -1.096,0 -1.984,0.891 -1.984,1.984 0,1.097 0.89,1.984 1.984,1.984 1.097,0 1.983,-0.889 1.983,-1.984 0.002,-1.093 -0.886,-1.984 -1.983,-1.984 z m 0,3.4 c -0.783,0 -1.419,-0.635 -1.419,-1.416 0,-0.782 0.636,-1.418 1.419,-1.418 0.782,0 1.415,0.636 1.415,1.418 0,0.782 -0.632,1.416 -1.415,1.416 z"
       fill="#ababab"
       id="path2033"
       style="fill:#fdde68;fill-opacity:1;stroke:#fdde68;stroke-width:0.425197;stroke-dasharray:none;stroke-opacity:1"
       transform="matrix(0.35277782,0,0,0.35277782,16.356078,33.919297)" />
    <path
       d="m 53.962,62.524 c -1.096,0 -1.984,0.891 -1.984,1.984 0,1.097 0.89,1.984 1.984,1.984 1.097,0 1.983,-0.889 1.983,-1.984 0.002,-1.093 -0.886,-1.984 -1.983,-1.984 z m 0,3.4 c -0.783,0 -1.419,-0.635 -1.419,-1.416 0,-0.782 0.636,-1.418 1.419,-1.418 0.782,0 1.415,0.636 1.415,1.418 0,0.782 -0.632,1.416 -1.415,1.416 z"
       fill="#ababab"
       id="path2035"
       style="fill:#fdde68;fill-opacity:1;stroke:#fdde68;stroke-width:0.425197;stroke-dasharray:none;stroke-opacity:1"
       transform="matrix(0.35277782,0,0,0.35277782,13.779934,33.919297)" />
    <path
       d="m 53.962,62.524 c -1.096,0 -1.984,0.891 -1.984,1.984 0,1.097 0.89,1.984 1.984,1.984 1.097,0 1.983,-0.889 1.983,-1.984 0.002,-1.093 -0.886,-1.984 -1.983,-1.984 z m 0,3.4 c -0.783,0 -1.419,-0.635 -1.419,-1.416 0,-0.782 0.636,-1.418 1.419,-1.418 0.782,0 1.415,0.636 1.415,1.418 0,0.782 -0.632,1.416 -1.415,1.416 z"
       fill="#ababab"
       id="path2037"
       style="fill:#fdde68;fill-opacity:1;stroke:#fdde68;stroke-width:0.425197;stroke-dasharray:none;stroke-opacity:1"
       transform="matrix(0.35277782,0,0,0.35277782,11.239935,33.919297)" />
    <path
       d="m 53.962,62.524 c -1.096,0 -1.984,0.891 -1.984,1.984 0,1.097 0.89,1.984 1.984,1.984 1.097,0 1.983,-0.889 1.983,-1.984 0.002,-1.093 -0.886,-1.984 -1.983,-1.984 z m 0,3.4 c -0.783,0 -1.419,-0.635 -1.419,-1.416 0,-0.782 0.636,-1.418 1.419,-1.418 0.782,0 1.415,0.636 1.415,1.418 0,0.782 -0.632,1.416 -1.415,1.416 z"
       fill="#ababab"
       id="path2039"
       style="fill:#fdde68;fill-opacity:1;stroke:#fdde68;stroke-width:0.425197;stroke-dasharray:none;stroke-opacity:1"
       transform="matrix(0.35277782,0,0,0.35277782,8.6637913,33.919297)" />
    <path
       d="m 53.962,62.524 c -1.096,0 -1.984,0.891 -1.984,1.984 0,1.097 0.89,1.984 1.984,1.984 1.097,0 1.983,-0.889 1.983,-1.984 0.002,-1.093 -0.886,-1.984 -1.983,-1.984 z m 0,3.4 c -0.783,0 -1.419,-0.635 -1.419,-1.416 0,-0.782 0.636,-1.418 1.419,-1.418 0.782,0 1.415,0.636 1.415,1.418 0,0.782 -0.632,1.416 -1.415,1.416 z"
       fill="#ababab"
       id="path2041"
       style="fill:#fdde68;fill-opacity:1;stroke:#fdde68;stroke-width:0.425197;stroke-dasharray:none;stroke-opacity:1"
       transform="matrix(0.35277782,0,0,0.35277782,6.1237923,33.919297)" />
    <path
       d="m 53.962,62.524 c -1.096,0 -1.984,0.891 -1.984,1.984 0,1.097 0.89,1.984 1.984,1.984 1.097,0 1.983,-0.889 1.983,-1.984 0.002,-1.093 -0.886,-1.984 -1.983,-1.984 z m 0,3.4 c -0.783,0 -1.419,-0.635 -1.419,-1.416 0,-0.782 0.636,-1.418 1.419,-1.418 0.782,0 1.415,0.636 1.415,1.418 0,0.782 -0.632,1.416 -1.415,1.416 z"
       fill="#ababab"
       id="path2043"
       style="fill:#fdde68;fill-opacity:1;stroke:#fdde68;stroke-width:0.425197;stroke-dasharray:none;stroke-opacity:1"
       transform="matrix(0.35277782,0,0,0.35277782,3.6199353,33.919297)" />
    <path
       d="m 53.962,62.524 c -1.096,0 -1.984,0.891 -1.984,1.984 0,1.097 0.89,1.984 1.984,1.984 1.097,0 1.983,-0.889 1.983,-1.984 0.002,-1.093 -0.886,-1.984 -1.983,-1.984 z m 0,3.4 c -0.783,0 -1.419,-0.635 -1.419,-1.416 0,-0.782 0.636,-1.418 1.419,-1.418 0.782,0 1.415,0.636 1.415,1.418 0,0.782 -0.632,1.416 -1.415,1.416 z"
       fill="#ababab"
       id="path2045"
       style="fill:#fdde68;fill-opacity:1;stroke:#fdde68;stroke-width:0.425197;stroke-dasharray:none;stroke-opacity:1"
       transform="matrix(0.35277782,0,0,0.35277782,1.0799355,33.919297)" />
    <path
       d="m 53.962,62.524 c -1.096,0 -1.984,0.891 -1.984,1.984 0,1.097 0.89,1.984 1.984,1.984 1.097,0 1.983,-0.889 1.983,-1.984 0.002,-1.093 -0.886,-1.984 -1.983,-1.984 z m 0,3.4 c -0.783,0 -1.419,-0.635 -1.419,-1.416 0,-0.782 0.636,-1.418 1.419,-1.418 0.782,0 1.415,0.636 1.415,1.418 0,0.782 -0.632,1.416 -1.415,1.416 z"
       fill="#ababab"
       id="path2047"
       style="fill:#fdde68;fill-opacity:1;stroke:#fdde68;stroke-width:0.425197;stroke-dasharray:none;stroke-opacity:1"
       transform="matrix(0.35277782,0,0,0.35277782,-1.4239206,33.919297)" />
    <path
       d="m 15.055208,55.976377 c -0.386645,0 -0.699911,0.314325 -0.699911,0.699912 0,0.386997 0.313972,0.699911 0.699911,0.699911 0.386997,0 0.699558,-0.31362 0.699558,-0.699911 7.06e-4,-0.385587 -0.312561,-0.699912 -0.699558,-0.699912 z m 0,1.199445 c -0.276225,0 -0.500592,-0.224014 -0.500592,-0.499533 0,-0.275873 0.224367,-0.500239 0.500592,-0.500239 0.275872,0 0.499181,0.224366 0.499181,0.500239 0,0.275872 -0.222956,0.499533 -0.499181,0.499533 z"
       fill="#ababab"
       id="path2049"
       style="fill:#fdde68;fill-opacity:1;stroke:#fdde68;stroke-width:0.15;stroke-dasharray:none;stroke-opacity:1" />
    <path
       d="m 30.239,62.381 v 4.252 h 4.254 v -4.252 z m 2.128,3.543 c -0.783,0 -1.42,-0.635 -1.42,-1.418 0,-0.782 0.637,-1.418 1.42,-1.418 0.782,0 1.417,0.636 1.417,1.418 0,0.784 -0.634,1.418 -1.417,1.418 z"
       fill="#ababab"
       id="path2051"
       style="fill:#fdde68;fill-opacity:1;stroke:none;stroke-width:0;stroke-dasharray:none;stroke-opacity:1"
       transform="matrix(0.35277782,0,0,0.35277782,1.1326119,33.91965)" />
  </g>
  <g
     id="layer1"
     transform="translate(-4.6727028,-55.385504)"
     style="display:none">
    <rect
       style="fill:none;fill-opacity:1;stroke:#000000;stroke-width:0.422221;stroke-linejoin:miter;stroke-dasharray:none"
       id="rect11567"
       width="55.608788"
       height="27.56085"
       x="4.8838134"
       y="55.596615" />
    <path
       d="m 53.962,62.524 c -1.096,0 -1.984,0.891 -1.984,1.984 0,1.097 0.89,1.984 1.984,1.984 1.097,0 1.983,-0.889 1.983,-1.984 0.002,-1.093 -0.886,-1.984 -1.983,-1.984 z m 0,3.4 c -0.783,0 -1.419,-0.635 -1.419,-1.416 0,-0.782 0.636,-1.418 1.419,-1.418 0.782,0 1.415,0.636 1.415,1.418 0,0.782 -0.632,1.416 -1.415,1.416 z"
       fill="#ababab"
       id="path12667-0-6-0-4-8-6-3-8-4"
       style="fill:#fdde68;fill-opacity:1;stroke:#fdde68;stroke-width:0.425197;stroke-dasharray:none;stroke-opacity:1"
       transform="matrix(0.35277782,0,0,0.35277782,36.514035,59.319297)" />
    <path
       d="m 53.962,62.524 c -1.096,0 -1.984,0.891 -1.984,1.984 0,1.097 0.89,1.984 1.984,1.984 1.097,0 1.983,-0.889 1.983,-1.984 0.002,-1.093 -0.886,-1.984 -1.983,-1.984 z m 0,3.4 c -0.783,0 -1.419,-0.635 -1.419,-1.416 0,-0.782 0.636,-1.418 1.419,-1.418 0.782,0 1.415,0.636 1.415,1.418 0,0.782 -0.632,1.416 -1.415,1.416 z"
       fill="#ababab"
       id="path12667-0-6-4-3-1-9-4-1"
       style="fill:#fdde68;fill-opacity:1;stroke:#fdde68;stroke-width:0.425197;stroke-dasharray:none;stroke-opacity:1"
       transform="matrix(0.35277782,0,0,0.35277782,34.01018,59.319297)" />
    <path
       d="m 53.962,62.524 c -1.096,0 -1.984,0.891 -1.984,1.984 0,1.097 0.89,1.984 1.984,1.984 1.097,0 1.983,-0.889 1.983,-1.984 0.002,-1.093 -0.886,-1.984 -1.983,-1.984 z m 0,3.4 c -0.783,0 -1.419,-0.635 -1.419,-1.416 0,-0.782 0.636,-1.418 1.419,-1.418 0.782,0 1.415,0.636 1.415,1.418 0,0.782 -0.632,1.416 -1.415,1.416 z"
       fill="#ababab"
       id="path12667-0-5-8-8-9-7-7"
       style="fill:#fdde68;fill-opacity:1;stroke:#fdde68;stroke-width:0.425197;stroke-dasharray:none;stroke-opacity:1"
       transform="matrix(0.35277782,0,0,0.35277782,31.47018,59.319297)" />
    <path
       d="m 53.962,62.524 c -1.096,0 -1.984,0.891 -1.984,1.984 0,1.097 0.89,1.984 1.984,1.984 1.097,0 1.983,-0.889 1.983,-1.984 0.002,-1.093 -0.886,-1.984 -1.983,-1.984 z m 0,3.4 c -0.783,0 -1.419,-0.635 -1.419,-1.416 0,-0.782 0.636,-1.418 1.419,-1.418 0.782,0 1.415,0.636 1.415,1.418 0,0.782 -0.632,1.416 -1.415,1.416 z"
       fill="#ababab"
       id="path12667-0-6-8-8-4-0-4"
       style="fill:#fdde68;fill-opacity:1;stroke:#fdde68;stroke-width:0.425197;stroke-dasharray:none;stroke-opacity:1"
       transform="matrix(0.35277782,0,0,0.35277782,28.966323,59.319297)" />
    <path
       d="m 53.962,62.524 c -1.096,0 -1.984,0.891 -1.984,1.984 0,1.097 0.89,1.984 1.984,1.984 1.097,0 1.983,-0.889 1.983,-1.984 0.002,-1.093 -0.886,-1.984 -1.983,-1.984 z m 0,3.4 c -0.783,0 -1.419,-0.635 -1.419,-1.416 0,-0.782 0.636,-1.418 1.419,-1.418 0.782,0 1.415,0.636 1.415,1.418 0,0.782 -0.632,1.416 -1.415,1.416 z"
       fill="#ababab"
       id="path12667-0-9-2-0-4-3"
       style="fill:#fdde68;fill-opacity:1;stroke:#fdde68;stroke-width:0.425197;stroke-dasharray:none;stroke-opacity:1"
       transform="matrix(0.35277782,0,0,0.35277782,26.426323,59.319297)" />
    <path
       d="m 53.962,62.524 c -1.096,0 -1.984,0.891 -1.984,1.984 0,1.097 0.89,1.984 1.984,1.984 1.097,0 1.983,-0.889 1.983,-1.984 0.002,-1.093 -0.886,-1.984 -1.983,-1.984 z m 0,3.4 c -0.783,0 -1.419,-0.635 -1.419,-1.416 0,-0.782 0.636,-1.418 1.419,-1.418 0.782,0 1.415,0.636 1.415,1.418 0,0.782 -0.632,1.416 -1.415,1.416 z"
       fill="#ababab"
       id="path12667-0-6-4-1-9-8"
       style="fill:#fdde68;fill-opacity:1;stroke:#fdde68;stroke-width:0.425197;stroke-dasharray:none;stroke-opacity:1"
       transform="matrix(0.35277782,0,0,0.35277782,23.922466,59.319297)" />
    <path
       d="m 53.962,62.524 c -1.096,0 -1.984,0.891 -1.984,1.984 0,1.097 0.89,1.984 1.984,1.984 1.097,0 1.983,-0.889 1.983,-1.984 0.002,-1.093 -0.886,-1.984 -1.983,-1.984 z m 0,3.4 c -0.783,0 -1.419,-0.635 -1.419,-1.416 0,-0.782 0.636,-1.418 1.419,-1.418 0.782,0 1.415,0.636 1.415,1.418 0,0.782 -0.632,1.416 -1.415,1.416 z"
       fill="#ababab"
       id="path12667-0-3-1-2-6"
       style="fill:#fdde68;fill-opacity:1;stroke:#fdde68;stroke-width:0.425197;stroke-dasharray:none;stroke-opacity:1"
       transform="matrix(0.35277782,0,0,0.35277782,21.382466,59.319297)" />
    <path
       d="m 53.962,62.524 c -1.096,0 -1.984,0.891 -1.984,1.984 0,1.097 0.89,1.984 1.984,1.984 1.097,0 1.983,-0.889 1.983,-1.984 0.002,-1.093 -0.886,-1.984 -1.983,-1.984 z m 0,3.4 c -0.783,0 -1.419,-0.635 -1.419,-1.416 0,-0.782 0.636,-1.418 1.419,-1.418 0.782,0 1.415,0.636 1.415,1.418 0,0.782 -0.632,1.416 -1.415,1.416 z"
       fill="#ababab"
       id="path12667-0-6-9-2-9"
       style="fill:#fdde68;fill-opacity:1;stroke:#fdde68;stroke-width:0.425197;stroke-dasharray:none;stroke-opacity:1"
       transform="matrix(0.35277782,0,0,0.35277782,18.87861,59.319297)" />
    <path
       d="m 53.962,62.524 c -1.096,0 -1.984,0.891 -1.984,1.984 0,1.097 0.89,1.984 1.984,1.984 1.097,0 1.983,-0.889 1.983,-1.984 0.002,-1.093 -0.886,-1.984 -1.983,-1.984 z m 0,3.4 c -0.783,0 -1.419,-0.635 -1.419,-1.416 0,-0.782 0.636,-1.418 1.419,-1.418 0.782,0 1.415,0.636 1.415,1.418 0,0.782 -0.632,1.416 -1.415,1.416 z"
       fill="#ababab"
       id="path12667-0-4-9-0"
       style="fill:#fdde68;fill-opacity:1;stroke:#fdde68;stroke-width:0.425197;stroke-dasharray:none;stroke-opacity:1"
       transform="matrix(0.35277782,0,0,0.35277782,16.33861,59.319297)" />
    <path
       d="m 53.962,62.524 c -1.096,0 -1.984,0.891 -1.984,1.984 0,1.097 0.89,1.984 1.984,1.984 1.097,0 1.983,-0.889 1.983,-1.984 0.002,-1.093 -0.886,-1.984 -1.983,-1.984 z m 0,3.4 c -0.783,0 -1.419,-0.635 -1.419,-1.416 0,-0.782 0.636,-1.418 1.419,-1.418 0.782,0 1.415,0.636 1.415,1.418 0,0.782 -0.632,1.416 -1.415,1.416 z"
       fill="#ababab"
       id="path12667-0-6-8-8-7-1"
       style="fill:#fdde68;fill-opacity:1;stroke:#fdde68;stroke-width:0.425197;stroke-dasharray:none;stroke-opacity:1"
       transform="matrix(0.35277782,0,0,0.35277782,13.762466,59.319297)" />
    <path
       d="m 53.962,62.524 c -1.096,0 -1.984,0.891 -1.984,1.984 0,1.097 0.89,1.984 1.984,1.984 1.097,0 1.983,-0.889 1.983,-1.984 0.002,-1.093 -0.886,-1.984 -1.983,-1.984 z m 0,3.4 c -0.783,0 -1.419,-0.635 -1.419,-1.416 0,-0.782 0.636,-1.418 1.419,-1.418 0.782,0 1.415,0.636 1.415,1.418 0,0.782 -0.632,1.416 -1.415,1.416 z"
       fill="#ababab"
       id="path12667-0-9-2-4-6"
       style="fill:#fdde68;fill-opacity:1;stroke:#fdde68;stroke-width:0.425197;stroke-dasharray:none;stroke-opacity:1"
       transform="matrix(0.35277782,0,0,0.35277782,11.222467,59.319297)" />
    <path
       d="m 53.962,62.524 c -1.096,0 -1.984,0.891 -1.984,1.984 0,1.097 0.89,1.984 1.984,1.984 1.097,0 1.983,-0.889 1.983,-1.984 0.002,-1.093 -0.886,-1.984 -1.983,-1.984 z m 0,3.4 c -0.783,0 -1.419,-0.635 -1.419,-1.416 0,-0.782 0.636,-1.418 1.419,-1.418 0.782,0 1.415,0.636 1.415,1.418 0,0.782 -0.632,1.416 -1.415,1.416 z"
       fill="#ababab"
       id="path12667-0-6-8-8-76"
       style="fill:#fdde68;fill-opacity:1;stroke:#fdde68;stroke-width:0.425197;stroke-dasharray:none;stroke-opacity:1"
       transform="matrix(0.35277782,0,0,0.35277782,8.6463238,59.319297)" />
    <path
       d="m 53.962,62.524 c -1.096,0 -1.984,0.891 -1.984,1.984 0,1.097 0.89,1.984 1.984,1.984 1.097,0 1.983,-0.889 1.983,-1.984 0.002,-1.093 -0.886,-1.984 -1.983,-1.984 z m 0,3.4 c -0.783,0 -1.419,-0.635 -1.419,-1.416 0,-0.782 0.636,-1.418 1.419,-1.418 0.782,0 1.415,0.636 1.415,1.418 0,0.782 -0.632,1.416 -1.415,1.416 z"
       fill="#ababab"
       id="path12667-0-9-2-7"
       style="fill:#fdde68;fill-opacity:1;stroke:#fdde68;stroke-width:0.425197;stroke-dasharray:none;stroke-opacity:1"
       transform="matrix(0.35277782,0,0,0.35277782,6.1063247,59.319297)" />
    <path
       d="m 53.962,62.524 c -1.096,0 -1.984,0.891 -1.984,1.984 0,1.097 0.89,1.984 1.984,1.984 1.097,0 1.983,-0.889 1.983,-1.984 0.002,-1.093 -0.886,-1.984 -1.983,-1.984 z m 0,3.4 c -0.783,0 -1.419,-0.635 -1.419,-1.416 0,-0.782 0.636,-1.418 1.419,-1.418 0.782,0 1.415,0.636 1.415,1.418 0,0.782 -0.632,1.416 -1.415,1.416 z"
       fill="#ababab"
       id="path12667-0-6-4-9"
       style="fill:#fdde68;fill-opacity:1;stroke:#fdde68;stroke-width:0.425197;stroke-dasharray:none;stroke-opacity:1"
       transform="matrix(0.35277782,0,0,0.35277782,3.6024674,59.319297)" />
    <path
       d="m 53.962,62.524 c -1.096,0 -1.984,0.891 -1.984,1.984 0,1.097 0.89,1.984 1.984,1.984 1.097,0 1.983,-0.889 1.983,-1.984 0.002,-1.093 -0.886,-1.984 -1.983,-1.984 z m 0,3.4 c -0.783,0 -1.419,-0.635 -1.419,-1.416 0,-0.782 0.636,-1.418 1.419,-1.418 0.782,0 1.415,0.636 1.415,1.418 0,0.782 -0.632,1.416 -1.415,1.416 z"
       fill="#ababab"
       id="path12667-0-3-6"
       style="fill:#fdde68;fill-opacity:1;stroke:#fdde68;stroke-width:0.425197;stroke-dasharray:none;stroke-opacity:1"
       transform="matrix(0.35277782,0,0,0.35277782,1.0624675,59.319297)" />
    <path
       d="m 53.962,62.524 c -1.096,0 -1.984,0.891 -1.984,1.984 0,1.097 0.89,1.984 1.984,1.984 1.097,0 1.983,-0.889 1.983,-1.984 0.002,-1.093 -0.886,-1.984 -1.983,-1.984 z m 0,3.4 c -0.783,0 -1.419,-0.635 -1.419,-1.416 0,-0.782 0.636,-1.418 1.419,-1.418 0.782,0 1.415,0.636 1.415,1.418 0,0.782 -0.632,1.416 -1.415,1.416 z"
       fill="#ababab"
       id="path12667-0-6-48"
       style="fill:#fdde68;fill-opacity:1;stroke:#fdde68;stroke-width:0.425197;stroke-dasharray:none;stroke-opacity:1"
       transform="matrix(0.35277782,0,0,0.35277782,-1.4413881,59.319297)" />
    <path
       d="m 15.055208,81.376378 c -0.386645,0 -0.699911,0.314325 -0.699911,0.699912 0,0.386997 0.313972,0.699911 0.699911,0.699911 0.386997,0 0.699558,-0.31362 0.699558,-0.699911 7.06e-4,-0.385587 -0.312561,-0.699912 -0.699558,-0.699912 z m 0,1.199445 c -0.276225,0 -0.500592,-0.224014 -0.500592,-0.499533 0,-0.275873 0.224367,-0.500239 0.500592,-0.500239 0.275872,0 0.49918,0.224366 0.49918,0.500239 0,0.275872 -0.222955,0.499533 -0.49918,0.499533 z"
       fill="#ababab"
       id="path12667-0-6-6"
       style="fill:#fdde68;fill-opacity:1;stroke:#fdde68;stroke-width:0.15;stroke-dasharray:none;stroke-opacity:1" />
    <path
       d="m 30.239,62.381 v 4.252 h 4.254 v -4.252 z m 2.128,3.543 c -0.783,0 -1.42,-0.635 -1.42,-1.418 0,-0.782 0.637,-1.418 1.42,-1.418 0.782,0 1.417,0.636 1.417,1.418 0,0.784 -0.634,1.418 -1.417,1.418 z"
       fill="#ababab"
       id="path12691-5-2"
       style="fill:#fdde68;fill-opacity:1;stroke:none;stroke-width:0;stroke-dasharray:none;stroke-opacity:1"
       transform="matrix(0.35277782,0,0,0.35277782,1.1151449,59.319651)" />
    <path
       d="m 53.962,62.524 c -1.096,0 -1.984,0.891 -1.984,1.984 0,1.097 0.89,1.984 1.984,1.984 1.097,0 1.983,-0.889 1.983,-1.984 0.002,-1.093 -0.886,-1.984 -1.983,-1.984 z m 0,3.4 c -0.783,0 -1.419,-0.635 -1.419,-1.416 0,-0.782 0.636,-1.418 1.419,-1.418 0.782,0 1.415,0.636 1.415,1.418 0,0.782 -0.632,1.416 -1.415,1.416 z"
       fill="#ababab"
       id="path12667-0-6-0-4-8-6-3-8"
       style="fill:#fdde68;fill-opacity:1;stroke:#fdde68;stroke-width:0.425197;stroke-dasharray:none;stroke-opacity:1"
       transform="matrix(0.35277782,0,0,0.35277782,36.531503,33.919297)" />
    <path
       d="m 53.962,62.524 c -1.096,0 -1.984,0.891 -1.984,1.984 0,1.097 0.89,1.984 1.984,1.984 1.097,0 1.983,-0.889 1.983,-1.984 0.002,-1.093 -0.886,-1.984 -1.983,-1.984 z m 0,3.4 c -0.783,0 -1.419,-0.635 -1.419,-1.416 0,-0.782 0.636,-1.418 1.419,-1.418 0.782,0 1.415,0.636 1.415,1.418 0,0.782 -0.632,1.416 -1.415,1.416 z"
       fill="#ababab"
       id="path12667-0-6-4-3-1-9-4"
       style="fill:#fdde68;fill-opacity:1;stroke:#fdde68;stroke-width:0.425197;stroke-dasharray:none;stroke-opacity:1"
       transform="matrix(0.35277782,0,0,0.35277782,34.027648,33.919297)" />
    <path
       d="m 53.962,62.524 c -1.096,0 -1.984,0.891 -1.984,1.984 0,1.097 0.89,1.984 1.984,1.984 1.097,0 1.983,-0.889 1.983,-1.984 0.002,-1.093 -0.886,-1.984 -1.983,-1.984 z m 0,3.4 c -0.783,0 -1.419,-0.635 -1.419,-1.416 0,-0.782 0.636,-1.418 1.419,-1.418 0.782,0 1.415,0.636 1.415,1.418 0,0.782 -0.632,1.416 -1.415,1.416 z"
       fill="#ababab"
       id="path12667-0-5-8-8-9-7"
       style="fill:#fdde68;fill-opacity:1;stroke:#fdde68;stroke-width:0.425197;stroke-dasharray:none;stroke-opacity:1"
       transform="matrix(0.35277782,0,0,0.35277782,31.487648,33.919297)" />
    <path
       d="m 53.962,62.524 c -1.096,0 -1.984,0.891 -1.984,1.984 0,1.097 0.89,1.984 1.984,1.984 1.097,0 1.983,-0.889 1.983,-1.984 0.002,-1.093 -0.886,-1.984 -1.983,-1.984 z m 0,3.4 c -0.783,0 -1.419,-0.635 -1.419,-1.416 0,-0.782 0.636,-1.418 1.419,-1.418 0.782,0 1.415,0.636 1.415,1.418 0,0.782 -0.632,1.416 -1.415,1.416 z"
       fill="#ababab"
       id="path12667-0-6-8-8-4-0"
       style="fill:#fdde68;fill-opacity:1;stroke:#fdde68;stroke-width:0.425197;stroke-dasharray:none;stroke-opacity:1"
       transform="matrix(0.35277782,0,0,0.35277782,28.983791,33.919297)" />
    <path
       d="m 53.962,62.524 c -1.096,0 -1.984,0.891 -1.984,1.984 0,1.097 0.89,1.984 1.984,1.984 1.097,0 1.983,-0.889 1.983,-1.984 0.002,-1.093 -0.886,-1.984 -1.983,-1.984 z m 0,3.4 c -0.783,0 -1.419,-0.635 -1.419,-1.416 0,-0.782 0.636,-1.418 1.419,-1.418 0.782,0 1.415,0.636 1.415,1.418 0,0.782 -0.632,1.416 -1.415,1.416 z"
       fill="#ababab"
       id="path12667-0-9-2-0-4"
       style="fill:#fdde68;fill-opacity:1;stroke:#fdde68;stroke-width:0.425197;stroke-dasharray:none;stroke-opacity:1"
       transform="matrix(0.35277782,0,0,0.35277782,26.443791,33.919297)" />
    <path
       d="m 53.962,62.524 c -1.096,0 -1.984,0.891 -1.984,1.984 0,1.097 0.89,1.984 1.984,1.984 1.097,0 1.983,-0.889 1.983,-1.984 0.002,-1.093 -0.886,-1.984 -1.983,-1.984 z m 0,3.4 c -0.783,0 -1.419,-0.635 -1.419,-1.416 0,-0.782 0.636,-1.418 1.419,-1.418 0.782,0 1.415,0.636 1.415,1.418 0,0.782 -0.632,1.416 -1.415,1.416 z"
       fill="#ababab"
       id="path12667-0-6-4-1-9"
       style="fill:#fdde68;fill-opacity:1;stroke:#fdde68;stroke-width:0.425197;stroke-dasharray:none;stroke-opacity:1"
       transform="matrix(0.35277782,0,0,0.35277782,23.939934,33.919297)" />
    <path
       d="m 53.962,62.524 c -1.096,0 -1.984,0.891 -1.984,1.984 0,1.097 0.89,1.984 1.984,1.984 1.097,0 1.983,-0.889 1.983,-1.984 0.002,-1.093 -0.886,-1.984 -1.983,-1.984 z m 0,3.4 c -0.783,0 -1.419,-0.635 -1.419,-1.416 0,-0.782 0.636,-1.418 1.419,-1.418 0.782,0 1.415,0.636 1.415,1.418 0,0.782 -0.632,1.416 -1.415,1.416 z"
       fill="#ababab"
       id="path12667-0-3-1-2"
       style="fill:#fdde68;fill-opacity:1;stroke:#fdde68;stroke-width:0.425197;stroke-dasharray:none;stroke-opacity:1"
       transform="matrix(0.35277782,0,0,0.35277782,21.399934,33.919297)" />
    <path
       d="m 53.962,62.524 c -1.096,0 -1.984,0.891 -1.984,1.984 0,1.097 0.89,1.984 1.984,1.984 1.097,0 1.983,-0.889 1.983,-1.984 0.002,-1.093 -0.886,-1.984 -1.983,-1.984 z m 0,3.4 c -0.783,0 -1.419,-0.635 -1.419,-1.416 0,-0.782 0.636,-1.418 1.419,-1.418 0.782,0 1.415,0.636 1.415,1.418 0,0.782 -0.632,1.416 -1.415,1.416 z"
       fill="#ababab"
       id="path12667-0-6-9-2"
       style="fill:#fdde68;fill-opacity:1;stroke:#fdde68;stroke-width:0.425197;stroke-dasharray:none;stroke-opacity:1"
       transform="matrix(0.35277782,0,0,0.35277782,18.896078,33.919297)" />
    <path
       d="m 53.962,62.524 c -1.096,0 -1.984,0.891 -1.984,1.984 0,1.097 0.89,1.984 1.984,1.984 1.097,0 1.983,-0.889 1.983,-1.984 0.002,-1.093 -0.886,-1.984 -1.983,-1.984 z m 0,3.4 c -0.783,0 -1.419,-0.635 -1.419,-1.416 0,-0.782 0.636,-1.418 1.419,-1.418 0.782,0 1.415,0.636 1.415,1.418 0,0.782 -0.632,1.416 -1.415,1.416 z"
       fill="#ababab"
       id="path12667-0-4-9"
       style="fill:#fdde68;fill-opacity:1;stroke:#fdde68;stroke-width:0.425197;stroke-dasharray:none;stroke-opacity:1"
       transform="matrix(0.35277782,0,0,0.35277782,16.356078,33.919297)" />
    <path
       d="m 53.962,62.524 c -1.096,0 -1.984,0.891 -1.984,1.984 0,1.097 0.89,1.984 1.984,1.984 1.097,0 1.983,-0.889 1.983,-1.984 0.002,-1.093 -0.886,-1.984 -1.983,-1.984 z m 0,3.4 c -0.783,0 -1.419,-0.635 -1.419,-1.416 0,-0.782 0.636,-1.418 1.419,-1.418 0.782,0 1.415,0.636 1.415,1.418 0,0.782 -0.632,1.416 -1.415,1.416 z"
       fill="#ababab"
       id="path12667-0-6-8-8-7"
       style="fill:#fdde68;fill-opacity:1;stroke:#fdde68;stroke-width:0.425197;stroke-dasharray:none;stroke-opacity:1"
       transform="matrix(0.35277782,0,0,0.35277782,13.779934,33.919297)" />
    <path
       d="m 53.962,62.524 c -1.096,0 -1.984,0.891 -1.984,1.984 0,1.097 0.89,1.984 1.984,1.984 1.097,0 1.983,-0.889 1.983,-1.984 0.002,-1.093 -0.886,-1.984 -1.983,-1.984 z m 0,3.4 c -0.783,0 -1.419,-0.635 -1.419,-1.416 0,-0.782 0.636,-1.418 1.419,-1.418 0.782,0 1.415,0.636 1.415,1.418 0,0.782 -0.632,1.416 -1.415,1.416 z"
       fill="#ababab"
       id="path12667-0-9-2-4"
       style="fill:#fdde68;fill-opacity:1;stroke:#fdde68;stroke-width:0.425197;stroke-dasharray:none;stroke-opacity:1"
       transform="matrix(0.35277782,0,0,0.35277782,11.239935,33.919297)" />
    <path
       d="m 53.962,62.524 c -1.096,0 -1.984,0.891 -1.984,1.984 0,1.097 0.89,1.984 1.984,1.984 1.097,0 1.983,-0.889 1.983,-1.984 0.002,-1.093 -0.886,-1.984 -1.983,-1.984 z m 0,3.4 c -0.783,0 -1.419,-0.635 -1.419,-1.416 0,-0.782 0.636,-1.418 1.419,-1.418 0.782,0 1.415,0.636 1.415,1.418 0,0.782 -0.632,1.416 -1.415,1.416 z"
       fill="#ababab"
       id="path12667-0-6-8-8"
       style="fill:#fdde68;fill-opacity:1;stroke:#fdde68;stroke-width:0.425197;stroke-dasharray:none;stroke-opacity:1"
       transform="matrix(0.35277782,0,0,0.35277782,8.6637913,33.919297)" />
    <path
       d="m 53.962,62.524 c -1.096,0 -1.984,0.891 -1.984,1.984 0,1.097 0.89,1.984 1.984,1.984 1.097,0 1.983,-0.889 1.983,-1.984 0.002,-1.093 -0.886,-1.984 -1.983,-1.984 z m 0,3.4 c -0.783,0 -1.419,-0.635 -1.419,-1.416 0,-0.782 0.636,-1.418 1.419,-1.418 0.782,0 1.415,0.636 1.415,1.418 0,0.782 -0.632,1.416 -1.415,1.416 z"
       fill="#ababab"
       id="path12667-0-9-2"
       style="fill:#fdde68;fill-opacity:1;stroke:#fdde68;stroke-width:0.425197;stroke-dasharray:none;stroke-opacity:1"
       transform="matrix(0.35277782,0,0,0.35277782,6.1237923,33.919297)" />
    <path
       d="m 53.962,62.524 c -1.096,0 -1.984,0.891 -1.984,1.984 0,1.097 0.89,1.984 1.984,1.984 1.097,0 1.983,-0.889 1.983,-1.984 0.002,-1.093 -0.886,-1.984 -1.983,-1.984 z m 0,3.4 c -0.783,0 -1.419,-0.635 -1.419,-1.416 0,-0.782 0.636,-1.418 1.419,-1.418 0.782,0 1.415,0.636 1.415,1.418 0,0.782 -0.632,1.416 -1.415,1.416 z"
       fill="#ababab"
       id="path12667-0-6-4"
       style="fill:#fdde68;fill-opacity:1;stroke:#fdde68;stroke-width:0.425197;stroke-dasharray:none;stroke-opacity:1"
       transform="matrix(0.35277782,0,0,0.35277782,3.6199353,33.919297)" />
    <path
       d="m 53.962,62.524 c -1.096,0 -1.984,0.891 -1.984,1.984 0,1.097 0.89,1.984 1.984,1.984 1.097,0 1.983,-0.889 1.983,-1.984 0.002,-1.093 -0.886,-1.984 -1.983,-1.984 z m 0,3.4 c -0.783,0 -1.419,-0.635 -1.419,-1.416 0,-0.782 0.636,-1.418 1.419,-1.418 0.782,0 1.415,0.636 1.415,1.418 0,0.782 -0.632,1.416 -1.415,1.416 z"
       fill="#ababab"
       id="path12667-0-3"
       style="fill:#fdde68;fill-opacity:1;stroke:#fdde68;stroke-width:0.425197;stroke-dasharray:none;stroke-opacity:1"
       transform="matrix(0.35277782,0,0,0.35277782,1.0799355,33.919297)" />
    <path
       d="m 53.962,62.524 c -1.096,0 -1.984,0.891 -1.984,1.984 0,1.097 0.89,1.984 1.984,1.984 1.097,0 1.983,-0.889 1.983,-1.984 0.002,-1.093 -0.886,-1.984 -1.983,-1.984 z m 0,3.4 c -0.783,0 -1.419,-0.635 -1.419,-1.416 0,-0.782 0.636,-1.418 1.419,-1.418 0.782,0 1.415,0.636 1.415,1.418 0,0.782 -0.632,1.416 -1.415,1.416 z"
       fill="#ababab"
       id="path12667-0-6"
       style="fill:#fdde68;fill-opacity:1;stroke:#fdde68;stroke-width:0.425197;stroke-dasharray:none;stroke-opacity:1"
       transform="matrix(0.35277782,0,0,0.35277782,-1.4239206,33.919297)" />
    <path
       d="m 15.055208,55.976377 c -0.386645,0 -0.699911,0.314325 -0.699911,0.699912 0,0.386997 0.313972,0.699911 0.699911,0.699911 0.386997,0 0.699558,-0.31362 0.699558,-0.699911 7.06e-4,-0.385587 -0.312561,-0.699912 -0.699558,-0.699912 z m 0,1.199445 c -0.276225,0 -0.500592,-0.224014 -0.500592,-0.499533 0,-0.275873 0.224367,-0.500239 0.500592,-0.500239 0.275872,0 0.499181,0.224366 0.499181,0.500239 0,0.275872 -0.222956,0.499533 -0.499181,0.499533 z"
       fill="#ababab"
       id="path12667-0-6-3"
       style="fill:#fdde68;fill-opacity:1;stroke:#fdde68;stroke-width:0.15;stroke-dasharray:none;stroke-opacity:1" />
    <path
       d="m 30.239,62.381 v 4.252 h 4.254 v -4.252 z m 2.128,3.543 c -0.783,0 -1.42,-0.635 -1.42,-1.418 0,-0.782 0.637,-1.418 1.42,-1.418 0.782,0 1.417,0.636 1.417,1.418 0,0.784 -0.634,1.418 -1.417,1.418 z"
       fill="#ababab"
       id="path12691-5"
       style="fill:#fdde68;fill-opacity:1;stroke:none;stroke-width:0;stroke-dasharray:none;stroke-opacity:1"
       transform="matrix(0.35277782,0,0,0.35277782,1.1326119,33.91965)" />
  </g>
</svg>
